<?xml version="1.0" encoding="UTF-8" standalone="no"?>
<svg
   viewBox="0 0 150 149.99999"
   version="1.1"
   id="svg39"
   sodipodi:docname="icon.svg"
   width="150"
   height="150"
   inkscape:version="1.2.2 (732a01da63, 2022-12-09)"
   xmlns:inkscape="http://www.inkscape.org/namespaces/inkscape"
   xmlns:sodipodi="http://sodipodi.sourceforge.net/DTD/sodipodi-0.dtd"
   xmlns="http://www.w3.org/2000/svg"
   xmlns:svg="http://www.w3.org/2000/svg">
  <defs
     id="defs43" />
  <sodipodi:namedview
     id="namedview41"
     pagecolor="#ffffff"
     bordercolor="#000000"
     borderopacity="0.25"
     inkscape:showpageshadow="2"
     inkscape:pageopacity="0.0"
     inkscape:pagecheckerboard="0"
     inkscape:deskcolor="#d1d1d1"
     showgrid="false"
     inkscape:zoom="6.82"
     inkscape:cx="75"
     inkscape:cy="70.601173"
     inkscape:window-width="2398"
     inkscape:window-height="1281"
     inkscape:window-x="2392"
     inkscape:window-y="0"
     inkscape:window-maximized="0"
     inkscape:current-layer="svg39" />
  <g
     id="g209"
     transform="matrix(2.8021923,0,0,2.8021923,25,7.7542922)">
    <g
       id="g29"
       transform="translate(-6.1568053,-0.00246)">
      <path
         d="m 25.46619,22.73245 c 0,-1.78998 -1.44995,-3.23999 -3.23999,-3.23999 -1.78003,0 -3.22998,1.45001 -3.22998,3.23999 0,1.78003 1.44019,3.22003 3.21997,3.22998 h 0.01001 c 0.01001,0 0.01001,0 0.02002,0 1.77002,-0.0099 3.21997,-1.44995 3.21997,-3.22998 z"
         style="fill:#c1121f"
         id="path27" />
    </g>
    <g
       id="g33"
       transform="translate(-6.1568053,-0.00246)">
      <path
         d="m 16.99622,22.73245 c 0,-2.89001 2.34009,-5.23999 5.22998,-5.23999 2.89014,0 5.23999,2.34998 5.23999,5.23999 0,2.53998 -1.82983,4.65997 -4.23999,5.13 V 44.00246 C 28.92615,35.55245 33.27625,29.99245 37.34632,25.98244 38.48173,24.873 38.52813,23.1308 38.11634,22.47243 33.81629,15.54244 31.89637,8.66243 32.40613,2.04244 32.47513,1.23496 31.53096,0.00246 30.13635,0.00246 H 14.3263 c -1.32324,0 -2.28003,1.12306 -2.28003,2.01001 0.30005,6.01996 -1.60986,12.88995 -5.66992,20.41998 -0.42892,0.74996 -0.26838,2.44338 0.82983,3.47998 3.58008,3.40002 12.39014,13.94 14.02002,17.96002 V 27.86246 c -2.40991,-0.47003 -4.22998,-2.59003 -4.22998,-5.13001 z"
         id="path31" />
    </g>
    <g
       id="g37"
       transform="translate(-6.1568053,-0.00246)">
      <path
         d="M 40.84315,45.99753 H 22.22889 c -0.55273,0 -1,0.44775 -1,1 0,0.55225 0.44727,1 1,1 h 18.61426 c 0.55273,0 1,-0.44775 1,-1 0,-0.55225 -0.44727,-1 -1,-1 z"
         style="fill:#005d8f"
         id="path35" />
    </g>
  </g>
</svg>
