<?xml version="1.0" standalone="no"?>
<!DOCTYPE svg PUBLIC "-//W3C//DTD SVG 20010904//EN"
 "http://www.w3.org/TR/2001/REC-SVG-20010904/DTD/svg10.dtd">
<svg version="1.0" xmlns="http://www.w3.org/2000/svg"
 width="700.000000pt" height="700.000000pt" viewBox="0 0 700.000000 700.000000"
 preserveAspectRatio="xMidYMid meet">
<metadata>
Created by potrace 1.14, written by Peter Selinger 2001-2017
</metadata>
<g transform="translate(0.000000,700.000000) scale(0.100000,-0.100000)"
fill="#000000" stroke="none">
<path d="M2155 6625 c-87 -26 -158 -84 -194 -158 -18 -38 -21 -67 -25 -297 -3
-140 -7 -268 -10 -285 -2 -16 -7 -61 -11 -100 -4 -38 -9 -72 -10 -75 -2 -3 -6
-29 -10 -59 -4 -30 -9 -63 -11 -75 -2 -12 -7 -37 -10 -56 -3 -19 -7 -43 -10
-52 -3 -10 -7 -30 -10 -45 -44 -256 -211 -766 -362 -1108 -85 -192 -225 -481
-279 -575 -50 -87 -58 -190 -23 -301 27 -89 56 -128 210 -286 74 -76 173 -180
220 -232 47 -51 94 -103 105 -115 16 -17 150 -171 309 -356 150 -175 444 -546
618 -780 211 -285 335 -473 429 -653 l56 -109 -1 1042 -1 1042 -80 27 c-116
39 -187 83 -265 161 -73 73 -145 183 -164 250 -4 14 -14 50 -22 80 -16 57 -22
207 -10 274 11 64 52 174 88 233 122 202 337 327 572 332 259 6 514 -147 623
-372 27 -55 65 -157 58 -157 -2 0 1 -15 6 -32 10 -33 13 -175 5 -214 -2 -12
-7 -38 -10 -59 -15 -94 -100 -247 -182 -329 -89 -88 -264 -185 -336 -186 -14
0 -18 -9 -18 -37 -1 -50 -1 -1862 0 -1982 l0 -95 64 95 c36 52 100 146 143
209 159 234 609 856 705 975 5 6 22 28 39 50 17 22 43 56 59 75 15 19 56 71
91 115 70 87 79 98 135 166 22 25 59 70 84 100 112 134 282 321 423 465 140
143 170 182 204 266 21 51 26 80 26 153 1 97 -6 116 -77 228 -90 141 -262 474
-343 662 -95 219 -197 513 -238 685 -40 167 -39 162 -64 300 -22 123 -30 174
-37 250 -3 30 -8 66 -11 80 -3 14 -7 172 -8 351 l-2 327 -26 44 c-32 56 -86
104 -146 132 -46 21 -50 21 -1136 22 -822 1 -1100 -2 -1130 -11z"/>
<path d="M3146 4069 c-133 -41 -231 -137 -276 -269 -89 -265 99 -541 379 -554
246 -11 447 187 440 434 -9 277 -279 471 -543 389z"/>
<path d="M3238 618 c-50 -10 -98 -68 -98 -119 0 -66 35 -114 93 -129 51 -13
2476 -9 2517 4 82 26 106 143 45 212 -35 38 -14 38 -1292 38 -678 1 -1247 -2
-1265 -6z"/>
</g>
</svg>
