<?xml version="1.0" encoding="UTF-8" standalone="no"?>
<!-- Created with Inkscape (http://www.inkscape.org/) -->

<svg
   width="376.41391mm"
   height="211.66667mm"
   viewBox="0 0 376.41391 211.66667"
   version="1.1"
   id="svg5"
   xml:space="preserve"
   inkscape:version="1.2.2 (732a01da63, 2022-12-09)"
   sodipodi:docname="signature.svg"
   xmlns:inkscape="http://www.inkscape.org/namespaces/inkscape"
   xmlns:sodipodi="http://sodipodi.sourceforge.net/DTD/sodipodi-0.dtd"
   xmlns="http://www.w3.org/2000/svg"
   xmlns:svg="http://www.w3.org/2000/svg"><sodipodi:namedview
     id="namedview7"
     pagecolor="#ffffff"
     bordercolor="#000000"
     borderopacity="0.25"
     inkscape:showpageshadow="2"
     inkscape:pageopacity="0.0"
     inkscape:pagecheckerboard="0"
     inkscape:deskcolor="#d1d1d1"
     inkscape:document-units="mm"
     showgrid="false"
     inkscape:zoom="1.2813964"
     inkscape:cx="686.36062"
     inkscape:cy="399.95431"
     inkscape:window-width="2240"
     inkscape:window-height="1805"
     inkscape:window-x="1460"
     inkscape:window-y="423"
     inkscape:window-maximized="0"
     inkscape:current-layer="layer1" /><defs
     id="defs2" /><g
     inkscape:label="Layer 1"
     inkscape:groupmode="layer"
     id="layer1"
     transform="translate(87.528992,-25.048029)"><path
       style="fill:#000000;stroke-width:0.352778"
       d="m 64.774415,211.16456 c -1.684383,-1.95352 -3.492243,-4.7801 -4.707259,-7.35978 -3.732805,-7.92539 -5.021157,-10.86006 -5.023728,-11.44328 -0.0011,-0.20373 -0.194092,-0.56287 -0.42932,-0.7981 -0.598957,-0.59896 -1.861351,-4.30477 -3.507617,-10.29676 -1.954051,-7.11224 -2.479753,-8.81945 -2.715779,-8.81945 -0.520418,0 -3.531133,1.27334 -4.659546,1.97069 -1.135175,0.70153 -1.245721,0.90781 -1.145219,2.13693 0.241607,2.95485 1.279674,9.67287 2.063592,13.35489 0.454402,2.1343 0.923904,4.43618 1.043337,5.11527 0.40332,2.29329 1.221133,5.45695 1.935589,7.48772 0.390804,1.11081 0.710551,2.26673 0.710551,2.56871 0,0.74678 -0.948274,1.05742 -1.593434,0.52198 -0.46731,-0.38783 -2.149426,-5.09634 -3.022963,-8.46174 -1.028704,-3.96321 -2.769825,-13.74108 -3.351319,-18.82051 -0.235655,-2.05846 -0.238802,-2.06305 -1.275055,-1.8558 -0.571349,0.11427 -2.019523,0.61865 -3.218163,1.12084 -2.632371,1.10287 -3.843517,1.45759 -7.294623,2.13644 -1.455208,0.28624 -3.55625,0.75075 -4.668979,1.03224 -3.467188,0.87709 -9.611512,0.57885 -12.718666,-0.61735 -0.869879,-0.33488 -1.146983,-0.24722 -2.3990371,0.75896 -2.156883,1.73331 -3.296486,0.79679 -1.68414,-1.38403 l 0.754183,-1.02008 -1.053617,-1.34689 c -1.199494,-1.53335 -1.788587,-3.63993 -1.017891,-3.63993 0.26265,0 0.676522,0.48037 0.919716,1.06749 0.243191,0.58711 0.884224,1.38225 1.424517,1.76698 l 0.982349,0.69949 0.823143,-1.0744 c 0.4527301,-0.59091 1.2560941,-1.60133 1.7852531,-2.24538 0.52916,-0.64404 0.878957,-1.25413 0.777329,-1.35576 -0.295639,-0.29564 1.274085,-3.075 3.140851,-5.5612 0.946961,-1.26118 1.811119,-2.53118 1.920353,-2.82222 0.109234,-0.29104 0.568462,-0.97791 1.020508,-1.52638 0.45205,-0.54846 0.821906,-1.19344 0.821906,-1.4333 0,-0.65848 2.004254,-2.4431 2.440777,-2.17332 0.934399,0.57749 0.103636,2.73275 -1.893661,4.91276 -0.688972,0.75199 -1.252672,1.6402 -1.252672,1.97379 0,0.3336 -0.3175,0.89387 -0.705556,1.24506 -0.388055,0.35119 -0.705555,0.87243 -0.705555,1.15831 0,0.28589 -0.4872,1.09473 -1.082672,1.79741 -1.300042,1.53412 -3.033321,4.19535 -4.213941,6.46995 -0.702363,1.3532 -0.779445,1.74914 -0.412073,2.11667 0.626445,0.62672 9.658799,0.60196 13.11702,-0.036 3.298006,-0.60836 11.664714,-3.02117 13.670139,-3.94223 1.652454,-0.75894 1.671423,-0.82648 1.144228,-4.07447 -0.192363,-1.18511 -0.527438,-4.04261 -0.744615,-6.35 -0.217174,-2.30738 -0.532991,-5.38586 -0.701813,-6.84107 -0.168822,-1.45521 -0.401002,-5.10646 -0.515959,-8.11389 -0.114956,-3.00743 -0.315425,-5.57936 -0.445487,-5.71541 -0.490386,-0.51294 -6.646076,2.98221 -6.469684,3.67344 0.06379,0.24996 0.366204,0.73228 0.672038,1.07183 0.485309,0.53881 0.48847,0.61736 0.02487,0.61736 -0.29216,0 -1.042882,-0.17837 -1.668272,-0.39638 -1.067922,-0.37228 -1.198153,-0.32401 -2.141393,0.79375 -0.858238,1.01702 -1.102219,1.13105 -1.67737,0.78391 -0.569486,-0.34373 -1.673028,0.0998 -7.17167,2.88221 -3.574238,1.80864 -7.68924,3.93439 -9.1444481,4.72388 -1.455209,0.78949 -2.883959,1.53791 -3.175,1.66315 -1.953045,0.84045 -5.257321,2.48046 -5.99722303,2.97662 -0.485069,0.32528 -1.278819,0.7148 -1.76388897,0.86562 -0.485069,0.15081 -1.488927,0.65725 -2.230797,1.12541 -1.036511,0.6541 -1.260151,0.95808 -0.965789,1.31277 0.865946,1.0434 -2.557717,2.45877 -8.1107499,3.35306 -1.209943,0.19486 -3.292856,0.77193 -4.628695,1.28238 -1.950287,0.74524 -2.531047,0.84324 -2.947773,0.49739 -1.223553,-1.01546 -0.123387,-2.21782 2.890827,-3.15937 3.41248,-1.06595 14.0638329,-5.56236 15.1182749,-6.38209 0.497121,-0.38647 12.5572351,-6.51269 23.0226921,-11.69493 2.771045,-1.37215 5.131393,-2.64551 5.245213,-2.82968 0.335347,-0.5426 -0.599348,-1.17921 -3.227924,-2.19851 -2.841424,-1.10183 -4.934684,-2.25699 -7.214493,-3.98127 -5.537376,-4.18808 -6.6208421,-7.71586 -3.680788,-11.98468 0.745924,-1.08306 2.073766,-2.50351 2.950753,-3.15656 3.551729,-2.64482 12.662406,-6.3915 18.704241,-7.69196 1.649236,-0.35499 3.183865,-0.81896 3.410288,-1.03104 0.264901,-0.24813 0.486569,-2.52387 0.621729,-6.38284 0.115528,-3.29848 0.36849,-7.6641 0.562144,-9.70139 0.193651,-2.037293 0.431306,-4.656673 0.528123,-5.820843 0.831486,-9.998103 0.882131,-10.366573 2.303187,-16.756941 2.462756,-11.074819 2.416613,-10.93611 3.637947,-10.93611 1.131493,0 2.251608,1.325985 2.849704,3.373464 0.714057,2.444447 1.275486,7.089469 1.084626,8.973757 -0.08844,0.873125 -0.186404,3.175 -0.217703,5.115278 -0.03129,1.940278 -0.25933,4.480278 -0.50674,5.644444 -0.247411,1.164167 -0.55498,3.026978 -0.683483,4.139578 -0.128506,1.1126 -0.374353,2.10987 -0.546326,2.21616 -0.171975,0.10629 -0.222161,0.42914 -0.111527,0.71745 0.110638,0.28831 0.03582,0.95792 -0.166264,1.48801 -0.202082,0.53009 -0.469395,1.727093 -0.594032,2.660003 -0.171115,1.28081 -0.408118,1.76334 -0.967789,1.97037 -0.494048,0.18276 -0.603441,0.35931 -0.328087,0.52949 0.62037,0.38341 0.500002,1.57526 -0.332846,3.2957 -0.410266,0.84749 -0.654724,1.63212 -0.543239,1.74361 0.111488,0.11148 -0.03827,0.66869 -0.332796,1.23824 -0.603409,1.16687 -1.755807,1.23427 -1.687852,0.0987 0.07418,-1.23947 0.968636,-4.20757 1.440523,-4.78012 0.252853,-0.30679 0.373281,-0.64425 0.267617,-0.74991 -0.171845,-0.17185 0.3605,-2.83761 1.253507,-6.277023 0.176319,-0.6791 0.408073,-1.9491 0.515003,-2.82222 0.106934,-0.87313 0.282018,-2.063752 0.389075,-2.645835 0.107058,-0.582084 0.254536,-1.613959 0.327727,-2.293056 0.0732,-0.679097 0.247446,-2.028472 0.387227,-2.998611 0.490178,-3.40208 0.356111,-13.630656 -0.202343,-15.437422 -0.285447,-0.923495 -0.68005,-1.625399 -0.876896,-1.559782 -0.515924,0.171972 -2.6679,8.971911 -2.605448,10.654284 0.02896,0.780002 -0.118191,1.970627 -0.326993,2.645833 -0.364624,1.179086 -0.541083,2.69408 -0.985319,8.459587 -0.112123,1.455208 -0.332317,3.836462 -0.489317,5.291662 -0.157,1.45521 -0.313944,3.518963 -0.348767,4.586123 -0.03482,1.06715 -0.132806,2.57527 -0.217741,3.35138 -0.08494,0.77612 -0.231877,3.47487 -0.326531,5.99723 -0.132348,3.52694 -0.08923,4.26162 0.186693,3.18109 0.197334,-0.77276 0.512343,-1.55857 0.700021,-1.74625 0.187678,-0.18768 0.341231,-0.62698 0.341231,-0.97623 0,-0.6623 0.866288,-0.87836 1.22094,-0.30453 0.112335,0.18177 -0.112657,1.16449 -0.499978,2.18384 -0.387319,1.01934 -0.652946,1.90463 -0.590279,1.9673 0.06267,0.0627 2.003591,-0.1602 4.313157,-0.49527 6.164781,-0.89436 21.479356,-0.88445 26.600606,0.0172 6.791269,1.1957 11.228727,3.08721 15.229139,6.49158 0.968996,0.82462 1.959296,1.49931 2.200674,1.49931 0.241378,0 0.807339,0.39222 1.257695,0.8716 0.631084,0.67176 0.727425,0.98174 0.42018,1.35195 -0.301858,0.36371 -0.219255,0.98724 0.340194,2.56798 0.585989,1.65572 0.697967,2.58658 0.541239,4.49927 -0.108684,1.3264 -0.387072,2.63992 -0.618635,2.91894 -0.231563,0.27902 -0.350442,0.57789 -0.264174,0.66416 0.167707,0.16771 3.647601,-1.18786 4.529801,-1.76455 1.97066,-1.28821 6.29814,-2.99547 7.59278,-2.99547 0.48064,0 0.87389,-0.0798 0.87389,-0.1773 0,-0.25946 -2.5287,-2.50088 -4.48137,-3.97226 -4.2249,-3.18356 -16.08718,-15.23783 -20.772941,-21.10917 -3.881363,-4.8634 -5.24437,-7.078623 -7.564593,-12.294303 -1.067742,-2.400188 -1.801184,-6.876021 -1.526551,-9.315733 0.207568,-1.843924 1.288476,-5.40439 1.889609,-6.224292 0.142254,-0.194027 0.68205,-1.121935 1.19954,-2.062017 1.12933,-2.051562 4.422676,-6.293687 6.177823,-7.957597 4.124707,-3.910292 5.243834,-4.88568 7.373966,-6.426857 1.297274,-0.938593 2.67618,-1.960488 3.064235,-2.270876 0.751149,-0.600809 1.418665,-1.031688 6.117192,-3.948624 1.64081,-1.018646 3.06838,-1.852083 3.17237,-1.852083 0.10398,0 0.8345,-0.293737 1.62337,-0.652748 4.59603,-2.09165 9.05906,-3.564985 12.39642,-4.09231 3.06354,-0.48406 10.92349,-0.661671 11.59949,-0.262114 0.18514,0.109429 0.7786,0.209246 1.3188,0.221816 0.54019,0.01257 1.02372,0.179431 1.07449,0.370802 0.11903,0.448625 -1.00851,0.666792 -1.78037,0.344485 -0.75075,-0.313489 -7.01385,-0.294638 -9.59259,0.02887 -1.06716,0.133877 -2.49591,0.563996 -3.175,0.955821 -0.6791,0.391826 -1.85012,0.767308 -2.60228,0.834406 -0.75215,0.0671 -1.56887,0.289085 -1.81495,0.493305 -0.24606,0.204221 -0.58317,0.332929 -0.74911,0.286018 -0.39508,-0.111685 -3.98187,1.104854 -4.88783,1.657817 -1.00739,0.614876 -5.36083,2.953211 -7.23194,3.884459 -0.87313,0.434548 -2.698756,1.675416 -4.05695,2.757477 -1.358195,1.082065 -3.147752,2.488713 -3.97679,3.12589 -2.52904,1.943749 -8.554559,8.087701 -9.95376,10.149409 -3.388452,4.992832 -5.229187,10.308625 -4.868711,14.06016 0.346234,3.603342 3.029356,8.975626 7.427909,14.872549 4.294841,5.75788 15.964742,17.81841 21.954682,22.68958 3.27742,2.66527 12.50556,9.07302 14.11112,9.79833 0.82973,0.37484 1.71601,0.9183 3.18152,1.95089 1.61452,1.13759 14.76302,7.67045 18.77889,9.33034 1.51115,0.62461 2.40114,0.967 6.79098,2.61261 6.22065,2.33192 7.71778,2.81528 7.96235,2.57071 0.71694,-0.71694 1.72513,-11.37248 2.07824,-21.96496 0.0582,-1.74625 0.14357,-3.33375 0.18968,-3.52778 0.0461,-0.19402 0.0585,-0.43215 0.0276,-0.52916 -0.031,-0.097 -0.12975,-3.19264 -0.21951,-6.87917 -0.14979,-6.15146 -0.27369,-8.42871 -0.67182,-12.34722 -0.5117,-5.03629 -0.51256,-6.879173 -0.003,-6.879173 0.28298,0 0.53434,0.238133 0.5586,0.529173 0.0243,0.29104 0.0733,0.64823 0.10904,0.79375 0.24903,1.01457 0.62212,3.43686 0.75294,4.88838 0.0856,0.94941 0.2206,2.28183 0.30009,2.96092 1.26505,10.80758 1.19327,27.38279 -0.16271,37.57084 -0.20659,1.55222 -0.46403,3.62988 -0.57208,4.61701 l -0.19647,1.79479 7.35908,1.78903 c 7.24193,1.76055 12.34272,2.81839 15.12018,3.13575 0.77611,0.0887 3.31611,0.40574 5.64444,0.70458 9.64293,1.23767 11.89111,1.4144 17.05369,1.34064 8.48789,-0.12127 12.54293,-0.65758 15.773,-2.08606 3.1367,-1.3872 5.21235,-3.71092 5.51743,-6.17686 0.0598,-0.48354 0.37525,-0.92913 0.70176,-0.99133 0.50735,-0.0967 0.57645,0.16278 0.47799,1.79441 -0.0633,1.04907 -0.35634,2.3683 -0.65119,2.93161 -1.49314,2.85268 -5.64798,5.22092 -11.15537,6.3585 -3.36979,0.69605 -16.69078,0.83147 -21.72008,0.22081 -10.81167,-1.31277 -18.97117,-2.57748 -21.84597,-3.38609 -0.98458,-0.27694 -3.37765,-0.90452 -5.31792,-1.39463 -1.94028,-0.4901 -4.37075,-1.1308 -5.40105,-1.42376 -1.39025,-0.39532 -1.90286,-0.42575 -1.98807,-0.11803 -0.35568,1.28457 -1.26803,4.88853 -1.62316,6.41185 -1.21424,5.20837 -3.982,11.30383 -6.56355,14.45495 -2.28574,2.79006 -7.12607,6.92855 -9.40691,8.04293 -3.77273,1.84329 -5.18296,2.11621 -10.03355,1.94177 -3.99097,-0.14352 -4.79147,-0.28269 -7.1407,-1.24139 -5.01591,-2.04697 -8.89259,-4.50234 -11.98324,-7.58985 l -2.28186,-2.27952 -1.00847,1.00847 c -1.91983,1.91983 -3.68945,1.12348 -5.20634,-2.34292 -0.46583,-1.0645 -0.83738,-1.55407 -0.93708,-1.23472 -0.45972,1.47256 -3.0937,7.99564 -3.38318,8.37847 -0.51327,0.6788 -1.589307,0.52325 -2.026085,-0.29287 -0.317027,-0.59238 -0.223728,-1.08546 0.483941,-2.55764 1.024454,-2.13121 1.859894,-4.20341 3.373664,-8.36794 1.47031,-4.04493 1.46149,-5.22331 -0.0249,-3.33363 -0.38156,0.48507 -0.85027,0.88195 -1.0416,0.88195 -0.19132,0 -0.93386,0.45653 -1.65009,1.01452 -1.907004,1.48569 -12.075094,7.06775 -12.943894,7.10593 -0.194027,0.009 -1.146527,0.40596 -2.116666,0.88319 -0.970139,0.47722 -2.032332,0.86913 -2.36043,0.87091 -0.328097,0.002 -0.694654,0.16197 -0.814571,0.356 -0.119916,0.19403 -0.605536,0.35278 -1.079154,0.35278 -0.473618,0 -0.861123,0.13391 -0.861123,0.29759 0,0.16367 1.547812,1.70977 3.439583,3.43576 4.274789,3.90019 6.247127,5.87184 7.911455,7.90868 0.713278,0.87292 1.903903,2.32695 2.645833,3.23116 2.926998,3.56722 4.547098,6.20796 5.931317,9.66796 1.99263,4.9808 0.73091,7.85932 -3.00409,6.85358 -2.437003,-0.65621 -4.986944,-3.25561 -12.241901,-12.47933 -4.328562,-5.5032 -8.158396,-10.12567 -9.92975,-11.98487 -2.078559,-2.18165 -5.968795,-5.16664 -6.733494,-5.16664 -0.32282,0 -1.053208,-0.49463 -1.623085,-1.09917 -1.291054,-1.36959 -5.995995,-4.54124 -7.297946,-4.91963 -0.809297,-0.2352 -0.970139,-0.1742 -0.970139,0.36796 0,0.55654 1.267203,4.70046 3.885601,12.70639 1.07534,3.28793 2.489147,6.82773 3.170269,7.9375 0.357248,0.58209 0.988325,1.93146 1.402391,2.99862 2.244771,5.78535 6.488691,13.01544 7.220998,12.30194 0.12513,-0.12192 0.07241,-0.91568 -0.117151,-1.76389 -0.189561,-0.84822 -0.536889,-2.53905 -0.771835,-3.75741 -0.234947,-1.21835 -0.563249,-2.29928 -0.729559,-2.40207 -0.505513,-0.31243 -0.337598,-1.20357 0.226787,-1.20357 0.291042,0 0.529167,0.0419 0.529167,0.0932 0,0.0512 0.331438,0.96406 0.736526,2.02847 2.035288,5.34793 2.5931,8.51873 1.662363,9.44947 -0.965849,0.96585 -2.308716,0.48076 -3.955158,-1.42875 z m 27.072218,-3.95871 c 1.331467,-1.33146 -2.089175,-8.33754 -6.564426,-13.4451 -5.388378,-6.1497 -8.114934,-9.08416 -10.106633,-10.87728 -1.275175,-1.14804 -2.444362,-2.29703 -2.598194,-2.55332 -0.630685,-1.05073 -1.633682,-1.2358 -4.335512,-0.79995 -1.450315,0.23397 -2.734836,0.58379 -2.854491,0.77739 -0.119652,0.1936 0.477873,0.92515 1.327827,1.62567 2.336183,1.92542 6.981755,6.88602 9.782525,10.44588 8.770219,11.1472 10.123933,12.63664 13.052708,14.36145 1.961272,1.15503 1.666212,1.09524 2.296196,0.46526 z m 40.277107,-24.08476 c 3.12452,-0.80853 7.84463,-3.78551 10.70828,-6.75373 0.96863,-1.00399 3.25686,-4.33337 4.02779,-5.86044 1.35022,-2.67452 4.46541,-11.99589 4.9691,-14.86871 0.22584,-1.28811 0.77268,-1.0069 -6.70785,-3.44948 -5.42362,-1.77095 -16.31946,-6.40198 -20.57042,-8.74299 -1.4616,-0.8049 -3.84808,-2.08691 -5.30329,-2.8489 -1.45521,-0.76199 -2.8612,-1.56087 -3.12443,-1.77529 -0.4992,-0.40665 -0.96533,-0.69462 -2.85725,-1.76517 -0.62421,-0.35322 -2.40801,-1.50416 -3.964,-2.55764 -2.83086,-1.91664 -3.45987,-2.20464 -3.45987,-1.58411 0,0.18222 -0.635,1.065 -1.41111,1.96173 -0.77612,0.89673 -1.41112,1.74823 -1.41112,1.89224 0,0.144 0.4583,0.88841 1.01844,1.65424 2.22455,3.04145 2.80997,6.40246 3.10101,17.80364 0.19321,7.56869 0.14172,9.00206 -0.41186,11.46527 -0.99188,4.41357 -0.97209,4.82672 0.29761,6.21268 4.65388,5.07998 12.30544,9.16605 18.30781,9.77669 3.11677,0.31708 3.5348,0.28261 6.79116,-0.56003 z M 68.711934,177.7604 c 0.477276,-0.11655 -0.365922,-1.03948 -2.756796,-3.0175 -2.671072,-2.20983 -3.857788,-2.67365 -3.857788,-1.5078 0,0.25149 -0.327526,1.06836 -0.727837,1.81525 -1.296102,2.41825 -0.270027,3.11357 4.255615,2.88381 1.649236,-0.0837 3.038299,-0.16192 3.086806,-0.17376 z m 6.967361,-2.37245 c 3.505836,-1.46835 17.469555,-8.55467 18.687125,-9.48336 0.62427,-0.47615 1.2788,-0.87144 1.45451,-0.87841 0.17571,-0.007 0.78595,-0.39398 1.35608,-0.86 l 1.0366,-0.84731 -0.95368,-3.46153 c -0.52453,-1.90384 -1.07124,-4.81091 -1.21492,-6.46015 l -0.26123,-2.99861 -1.19956,0.058 c -0.65975,0.0319 -1.53202,0.21959 -1.938352,0.41711 -0.70698,0.34366 -1.811888,0.81576 -4.707544,2.01143 -0.727604,0.30044 -1.640417,0.72571 -2.028473,0.94504 -4.292914,2.42638 -5.711945,3.28016 -7.065331,4.25097 -2.519349,1.80718 -10.859464,8.55198 -11.598374,9.37982 -0.725075,0.81233 -2.002649,1.10866 -1.340605,0.31094 1.166389,-1.40541 -3.931469,-2.61585 -6.21633,-1.47601 -0.615802,0.3072 -1.119639,0.69272 -1.119639,0.85671 0,0.29935 1.459131,1.27834 3.918603,2.62916 1.38225,0.75917 7.857748,5.90771 8.270678,6.57585 0.321948,0.52092 2.285369,0.134 4.920442,-0.96965 z m -16.320354,-0.73589 c 0.231803,-0.53358 0.782704,-1.45965 1.224227,-2.05793 l 0.802763,-1.08779 -0.790818,-0.71656 c -0.43495,-0.39411 -1.53942,-1.1468 -2.454374,-1.67265 l -1.663555,-0.95608 -2.372981,1.17293 c -1.305141,0.64511 -2.429094,1.3534 -2.497674,1.57398 -0.06858,0.22057 0.87474,1.04607 2.096262,1.83445 1.221521,0.78837 2.617823,1.75313 3.102892,2.1439 1.225427,0.98721 2.0557,0.91104 2.553258,-0.23425 z m 43.822219,-0.0719 c 0.60043,-0.66345 0.583,-0.75242 -0.46635,-2.38125 -0.59955,-0.93062 -1.43965,-2.32704 -1.86689,-3.10315 -0.75817,-1.37728 -0.78235,-1.38997 -1.00858,-0.52917 -0.12748,0.48507 -0.0946,1.26115 0.073,1.72462 0.16762,0.46347 0.23305,0.91439 0.14541,1.00203 -0.0876,0.0876 0.0688,0.80599 0.34762,1.59632 0.87519,2.48055 1.63959,2.9461 2.7758,1.6906 z m -58.111643,-2.40944 c 0.148989,0.0443 0.70164,-0.20733 1.228119,-0.55918 0.912555,-0.60988 0.931241,-0.6794 0.400399,-1.48956 -0.306257,-0.46741 -0.784257,-0.84984 -1.062225,-0.84984 -0.735594,0 -3.905977,-3.28665 -4.122762,-4.27395 -0.101604,-0.46273 -0.100411,0.9843 0.0025,3.21562 0.103061,2.23132 0.340533,4.24334 0.527721,4.47115 0.258625,0.31475 0.630251,0.29307 1.54778,-0.0903 0.664091,-0.27748 1.329338,-0.46826 1.478323,-0.42395 z m 60.111743,-2.28121 c 0.0618,-1.57322 0.13881,-2.18494 0.62987,-5.00202 0.25631,-1.47042 0.32789,-3.36129 0.17964,-4.74559 l -0.24644,-2.30123 -2.45386,2.5733 c -3.09608,3.24674 -3.09593,3.25085 0.33199,9.12276 1.04822,1.79556 1.49815,1.89738 1.5588,0.35278 z m -52.598849,-1.68078 c 1.158631,-0.58487 2.106605,-1.16268 2.106605,-1.28402 0,-0.12134 -0.277812,-0.42587 -0.617361,-0.67673 -0.494633,-0.36544 -0.529699,-0.54499 -0.176389,-0.9032 0.342978,-0.34773 0.535048,-0.353 0.864306,-0.0237 0.532606,0.53261 2.130605,0.55051 2.651414,0.0297 0.216497,-0.21649 0.764184,-0.57789 1.217084,-0.80311 0.621555,-0.30908 0.870532,-0.7964 1.015495,-1.98762 0.246564,-2.0261 1.744977,-4.67027 3.817187,-6.73599 1.617659,-1.61259 5.730519,-5.02838 6.747549,-5.60392 0.289426,-0.16379 0.41003,-0.414 0.268009,-0.55602 -0.392843,-0.39284 -6.207747,1.38413 -11.024793,3.36905 -0.388056,0.1599 -2.293056,0.87681 -4.233334,1.59312 -1.940278,0.71631 -4.44059,1.78679 -5.55625,2.37885 -1.807507,0.95921 -2.027883,1.19601 -2.023072,2.17385 0.008,1.62407 0.376792,1.96368 2.509291,2.31075 4.006515,0.65208 7.256174,2.14784 5.843817,2.68981 -0.297218,0.11406 -0.91041,-0.0235 -1.362646,-0.30562 -1.029921,-0.64256 -3.115307,-1.04591 -3.115307,-0.60256 0,0.18235 0.334543,0.51059 0.74343,0.72942 0.516371,0.27635 0.630975,0.51032 0.375236,0.76606 -0.25574,0.25574 -0.767733,0.13246 -1.676351,-0.40364 -1.540708,-0.90904 -2.493165,-0.76351 -1.926971,0.29444 0.202392,0.37817 0.368875,0.97584 0.369958,1.32815 0.0025,0.81948 0.683062,3.28638 0.906618,3.28638 0.09343,0 1.11784,-0.47853 2.276475,-1.06341 z m -4.598251,0.4461 c -0.0051,-0.64921 -2.119337,-7.99516 -2.374543,-8.25037 -0.395697,-0.39569 -2.184118,1.93106 -2.40174,3.12469 -0.250155,1.37209 0.446765,2.5068 2.490181,4.05446 1.747883,1.32382 2.290082,1.57789 2.286102,1.07122 z M 69.249998,163.003 c 6.937054,-6.43129 18.237733,-12.87012 25.185242,-14.34988 1.47353,-0.31386 1.79273,-1.14376 0.53851,-1.40009 -2.021505,-0.41315 -4.600346,-0.50625 -7.553847,-0.27269 l -3.076057,0.24324 -3.979499,3.89498 c -4.98227,4.87645 -5.689975,5.43562 -13.278303,10.49151 -2.009898,1.33913 -3.518023,2.56685 -3.351389,2.72826 0.262266,0.25403 1.069026,0.43613 2.869509,0.64767 0.247431,0.0291 1.438056,-0.86328 2.645834,-1.983 z m -27.61376,-0.104 c 0,-1.02327 0.59056,-2.0622 2.026458,-3.565 1.476735,-1.54554 1.486503,-1.43264 -0.744792,-8.60807 -1.603392,-5.1562 -2.82836,-8.26485 -3.256784,-8.26485 -0.398974,0 0.115834,10.41624 0.792635,16.03763 0.33964,2.82097 0.744643,5.12904 0.900007,5.12904 0.155359,0 0.282476,-0.32794 0.282476,-0.72875 z m 24.397241,-2.90376 c 1.291749,-0.81552 3.085645,-1.99871 3.986435,-2.6293 0.900793,-0.63059 1.728272,-1.14652 1.83884,-1.14652 0.275752,0 7.139253,-5.96304 8.120998,-7.05556 1.08543,-1.2079 1.017824,-1.41111 -0.469456,-1.41111 -1.822623,0 -3.720052,1.05523 -8.831104,4.91128 -4.706712,3.551 -8.355796,7.27951 -8.77733,8.96838 l -0.250412,1.00328 1.016702,-0.57884 c 0.559184,-0.31836 2.073582,-1.24608 3.365327,-2.06161 z m 34.298871,-6.49557 c -0.23775,-2.05398 -0.68055,-2.82223 -1.7225,-2.9885 -0.97765,-0.15601 -1.07617,1.14287 -0.34617,4.5637 0.94253,4.41668 0.90462,4.36545 1.6303,2.20288 0.46694,-1.39147 0.59093,-2.4601 0.43837,-3.77808 z m 4.6176,1.7049 c 0.41757,-1.22406 0.44703,-1.86047 0.14219,-3.07108 -0.40255,-1.59868 -1.09799,-2.25449 -3.61039,-3.40469 -2.2198,-1.01623 -2.56815,-0.78191 -1.15801,0.77895 0.69675,0.77121 1.37034,1.81467 1.49686,2.31878 0.12729,0.50718 0.604,1.05874 1.06729,1.23488 0.83959,0.31921 1.1089,1.31356 0.52568,1.94092 -0.17135,0.18433 -0.41333,1.12889 -0.53774,2.09903 l -0.22619,1.76389 0.8868,-1.05833 c 0.48774,-0.58209 1.12382,-1.75314 1.41351,-2.60235 z m -55.319601,-0.35066 c 4.201855,-2.37798 12.917999,-5.56631 19.314175,-7.06506 1.728657,-0.40506 3.225207,-0.81867 3.325671,-0.91913 0.100464,-0.10047 -0.282014,-0.6681 -0.849951,-1.26142 -0.933831,-0.97556 -1.031691,-1.30425 -1.022964,-3.4359 0.0084,-2.05532 0.176269,-2.65235 1.310877,-4.66258 1.433572,-2.53991 4.07707,-5.69925 6.793361,-8.11898 2.283259,-2.03398 3.43687,-2.80924 5.875606,-3.94859 1.097276,-0.51263 2.090219,-1.08604 2.20654,-1.27425 0.324344,-0.5248 -2.280158,-2.41243 -5.172421,-3.74874 -2.174452,-1.00466 -7.185833,-2.31901 -10.847226,-2.84493 -8.412508,-1.20839 -26.552939,-0.81198 -29.905503,0.6535 -1.188536,0.51953 -1.144136,0.16995 -1.368548,10.77513 -0.185664,8.77411 -0.0861,10.28537 0.677298,10.28015 0.238837,-0.002 1.783627,-0.70203 3.432863,-1.55643 5.411061,-2.80325 15.110948,-7.61282 15.353458,-7.61282 0.130637,0 2.190958,-0.9525 4.578487,-2.11667 2.38753,-1.16416 4.515761,-2.11666 4.7294,-2.11666 0.213638,0 0.980821,-0.3175 1.704851,-0.70556 1.375869,-0.73742 2.741405,-0.91803 3.058753,-0.40455 0.285799,0.46243 -2.509845,2.26818 -5.25967,3.3973 -1.358195,0.55769 -2.848042,1.30309 -3.31077,1.65645 -0.462728,0.35336 -1.015806,0.64247 -1.229064,0.64247 -0.213258,0 -2.612785,1.09401 -5.332286,2.43113 -2.7195,1.33712 -6.293923,3.06088 -7.943159,3.83058 -1.649236,0.76969 -3.474861,1.62147 -4.056944,1.89284 -0.582084,0.27137 -1.805683,0.94001 -2.719113,1.48587 l -1.660779,0.99247 0.71816,1.8273 c 0.394988,1.00502 0.932427,2.30356 1.194312,2.88564 1.554311,3.45475 1.938253,4.42596 1.938253,4.90294 0,0.29255 0.145471,0.89658 0.323271,1.34227 0.177797,0.44569 0.515931,1.56441 0.751403,2.48604 0.235472,0.92163 0.552037,1.6757 0.703478,1.6757 0.15144,0 1.361119,-0.61448 2.688181,-1.36551 z m 23.641358,-30.26384 c -0.362356,-0.36236 0.479954,-1.17899 1.21606,-1.17899 0.860732,0 0.84963,0.58051 -0.02,1.04593 -0.802471,0.42946 -0.889925,0.43919 -1.196058,0.13306 z m 31.714153,21.66337 c -0.33994,-3.27534 -1.22791,-6.10798 -2.20138,-7.02251 -0.80015,-0.7517 -0.92875,-0.77196 -1.81239,-0.28561 -0.52312,0.28793 -1.31138,1.27614 -1.75168,2.19603 -0.56021,1.17038 -1.01236,1.67251 -1.50603,1.67251 -0.57635,0 -0.66496,-0.16143 -0.48411,-0.88194 0.12174,-0.48507 0.0713,-0.88195 -0.11207,-0.88195 -0.18338,0 -2.22465,0.94673 -4.53616,2.10385 l -4.202744,2.10384 2.645834,0.0167 c 1.455208,0.009 3.2179,0.11133 3.9171,0.22699 1.20147,0.19873 1.2833,0.15011 1.49048,-0.88583 0.12834,-0.64171 0.4386,-1.09611 0.74839,-1.09611 0.3932,0 0.47768,0.25745 0.32878,1.00194 -0.2211,1.10553 -0.13363,1.16096 3.74581,2.37377 1.06715,0.33362 2.25341,0.82182 2.63613,1.08488 1.17587,0.80824 1.33161,0.56246 1.09404,-1.72656 z m -25.232246,-2.59753 c 1.63968,-1.0891 3.457487,-2.24141 4.039571,-2.56068 4.49362,-2.46476 6.15732,-4.99203 6.223335,-9.45366 0.03861,-2.60922 -0.761016,-5.19961 -1.718476,-5.56702 -2.333156,-0.89531 -11.569891,6.98551 -14.177014,12.09589 -0.39859,0.78131 -0.867731,1.50894 -1.042536,1.61698 -0.474532,0.29327 -0.807875,2.49897 -0.539351,3.56886 0.229118,0.91288 2.321503,2.19264 3.686693,2.25488 0.300599,0.0137 1.888099,-0.86616 3.527778,-1.95525 z m -51.602706,0.91848 c 0.358306,-0.57374 0.693995,-0.67167 1.760552,-0.5136 1.333225,0.19759 2.744995,-0.35292 5.890556,-2.29699 1.343188,-0.83014 1.753101,-1.97999 0.572245,-1.6052 -1.115011,0.35389 -1.229815,-0.50952 -0.209377,-1.57463 0.931273,-0.97204 0.952055,-1.08637 0.812426,-4.46925 l -0.143299,-3.47169 -1.47944,0.0946 c -0.813697,0.052 -1.479445,0.0101 -1.479445,-0.0931 0,-0.64354 1.707618,-2.64747 2.293056,-2.69096 0.614916,-0.0457 0.603585,-0.072 -0.08819,-0.20529 -0.436563,-0.0841 -0.79375,-0.19112 -0.79375,-0.23785 0,-0.0467 0.396875,-1.09766 0.881944,-2.33541 1.010754,-2.57913 1.244304,-6.35 0.393287,-6.35 -0.51574,0 -3.430619,0.83075 -5.508565,1.56995 -0.679097,0.24158 -2.028472,0.71187 -2.998611,1.04508 -8.649569,2.97086 -12.808392,5.45521 -14.78865,8.83427 -0.500479,0.854 -0.909962,2.06344 -0.909962,2.68764 0,2.46175 3.338837,5.82907 8.466667,8.53888 1.26118,0.66648 3.245556,1.77599 4.409722,2.46559 1.164167,0.6896 2.197541,1.26801 2.29639,1.28537 0.09885,0.0174 0.37895,-0.28745 0.622448,-0.67736 z m 0.512346,-1.47074 c 0.07622,-0.22867 0.41147,-0.58586 0.744996,-0.79375 0.458065,-0.28552 0.684552,-0.25266 0.925862,0.13434 0.442652,0.70989 0.130447,1.07518 -0.918926,1.07518 -0.526838,0 -0.833924,-0.1698 -0.751932,-0.41577 z m 1.617949,-2.64744 c 0.254659,-0.10191 0.558934,-0.0894 0.676158,0.0278 0.117225,0.11723 -0.09114,0.20061 -0.463021,0.18529 -0.410968,-0.0169 -0.494559,-0.10052 -0.213137,-0.21314 z m 2.02149,-5.02631 c -0.260896,-0.42213 0.402739,-0.84039 0.872632,-0.54998 0.394532,0.24383 0.135526,0.87839 -0.358532,0.87839 -0.171126,0 -0.40247,-0.14779 -0.5141,-0.32841 z m 51.653136,9.08133 c 0.946669,-1.01613 0.913709,-1.40609 -0.07445,-0.88084 -1.430785,0.76053 -1.689897,0.99175 -1.484238,1.32451 0.321331,0.51994 0.783523,0.38837 1.558688,-0.44367 z m 5.206486,-1.37867 c 4.434485,-2.45936 5.509515,-3.10229 8.299125,-4.96337 1.69672,-1.13196 3.17446,-2.05811 3.28389,-2.05811 0.38281,0 2.9798,-2.23787 2.9798,-2.56775 0,-0.54604 -2.52108,0.0784 -4.16094,1.03066 -0.83331,0.48389 -1.70644,0.81061 -1.94028,0.72604 -0.44365,-0.16044 -2.28204,0.70921 -2.89371,1.36887 -0.19453,0.20978 -1.57064,1.12555 -3.058037,2.03504 -1.997636,1.22148 -2.942583,2.06012 -3.615973,3.20917 -0.501389,0.85555 -0.911616,1.64635 -0.911616,1.75732 0,0.38289 0.688386,0.19939 2.017741,-0.53787 z m -23.956111,56.94309 c 0.25466,-0.1019 0.558935,-0.0894 0.676159,0.0278 0.117225,0.11722 -0.09114,0.2006 -0.463021,0.18528 -0.410968,-0.0169 -0.494559,-0.10052 -0.213138,-0.21313 z m -59.9722251,-28.575 c 0.25466,-0.1019 0.558934,-0.0894 0.676158,0.0278 0.117225,0.11722 -0.09114,0.2006 -0.46302,0.18528 -0.410969,-0.0169 -0.49456,-0.10052 -0.213138,-0.21313 z M 22.054174,157.62584 c -0.121507,-0.1966 0.177839,-1.22848 0.665219,-2.29305 0.668549,-1.46031 1.070211,-1.9356 1.635753,-1.9356 0.575638,0 0.723406,0.18422 0.636707,0.79375 -0.06925,0.48688 -0.341757,0.77644 -0.70486,0.74896 -0.483518,-0.0366 -0.532677,0.11113 -0.268358,0.80634 0.245113,0.64469 0.196211,0.90001 -0.201624,1.05267 -0.288868,0.11085 -0.525219,0.42269 -0.525219,0.69297 0,0.56664 -0.909373,0.66507 -1.237618,0.13396 z m 11.402029,-7.29185 c 0.254659,-0.10191 0.558934,-0.0894 0.676158,0.0278 0.117225,0.11722 -0.09114,0.2006 -0.463021,0.18529 -0.410968,-0.0169 -0.494559,-0.10052 -0.213137,-0.21314 z m -47.558857,-2.90659 c 0,-0.9037 2.156375,-3.69561 2.976323,-3.85352 0.621143,-0.11962 0.619753,-0.0808 -0.0315,0.88034 -0.374735,0.55301 -0.988597,1.60079 -1.364132,2.32839 -0.729703,1.41379 -1.580688,1.76092 -1.580688,0.64479 z M 152.75643,96.864547 c -0.003,-0.63059 -0.10054,-1.50371 -0.21754,-1.94027 -0.151,-0.56347 -0.06,-0.79375 0.3135,-0.79375 0.30714,0 0.61801,0.45897 0.7467,1.10243 0.3676,1.83798 0.26314,2.77812 -0.30868,2.77812 -0.36083,0 -0.5307,-0.36472 -0.53398,-1.14653 z m -0.70074,-3.792356 c 0,-0.194028 0.23812,-0.352778 0.52917,-0.352778 0.29104,0 0.52916,0.15875 0.52916,0.352778 0,0.194027 -0.23812,0.352777 -0.52916,0.352777 -0.29105,0 -0.52917,-0.15875 -0.52917,-0.352777 z m -0.54367,-2.492915 c -0.1279,-0.206936 -0.14411,-0.464676 -0.036,-0.572749 0.29021,-0.290209 1.28526,0.162814 1.28526,0.585149 0,0.478807 -0.95148,0.469364 -1.24922,-0.01238 z m -2.98411,-11.618197 c 0,-0.194028 0.23813,-0.352778 0.52917,-0.352778 0.29104,0 0.52916,0.15875 0.52916,0.352778 0,0.194028 -0.23812,0.352778 -0.52916,0.352778 -0.29104,0 -0.52917,-0.15875 -0.52917,-0.352778 z M 133.6451,52.967315 c 0.25466,-0.101908 0.55893,-0.08938 0.67616,0.02785 0.11722,0.117226 -0.0911,0.200604 -0.46303,0.185286 -0.41096,-0.01693 -0.49455,-0.100521 -0.21313,-0.213136 z m -4.14112,-2.020662 c -0.29514,-0.355623 -0.30307,-0.565768 -0.0277,-0.735926 0.46794,-0.289202 1.48285,0.48213 1.21169,0.92088 -0.27957,0.452363 -0.71095,0.384974 -1.18395,-0.184954 z"
       id="path183" /></g></svg>
